name C:/MyDriveSym/Projects/mobilecap/Data\Session20210910_0002\mocap\ForceDataProcessed\walking3_forces.mot
datacolumns 19
datarows 14
range 0.33950000 0.34600000
endheader 
time	R_ground_force_vx	R_ground_force_vy	R_ground_force_vz	R_ground_force_px	R_ground_force_py	R_ground_force_pz	R_ground_torque_x	R_ground_torque_y	R_ground_torque_z	L_ground_force_vx	L_ground_force_vy	L_ground_force_vz	L_ground_force_px	L_ground_force_py	L_ground_force_pz	L_ground_torque_x	L_ground_torque_y	L_ground_torque_z	
          0.33950000	         -6.36454300	        714.55503500	        -27.37808100	          0.16673200	          0.00600000	         -0.15067700	          0.00000000	         -1.81616300	          0.00000000	          0.00000000	          0.00000000	          0.00000000	          0.62988700	          0.00000000	         -0.22276700	          0.00000000	          0.00000000	          0.00000000	
          0.34000000	         -6.12605800	        715.10355600	        -27.37315900	          0.16686700	          0.00600000	         -0.15066100	          0.00000000	         -1.82829400	          0.00000000	          0.00000000	          0.00000000	          0.00000000	          0.62988700	          0.00000000	         -0.22276700	          0.00000000	          0.00000000	          0.00000000	
          0.34050000	         -5.88745900	        715.65853100	        -27.36885800	          0.16700200	          0.00600000	         -0.15064500	          0.00000000	         -1.84043000	          0.00000000	          0.00000000	          0.00000000	          0.00000000	          0.62988700	          0.00000000	         -0.22276700	          0.00000000	          0.00000000	          0.00000000	
          0.34100000	         -5.64874000	        716.21994100	        -27.36518400	          0.16713800	          0.00600000	         -0.15063000	          0.00000000	         -1.85257200	          0.00000000	          0.00000000	          0.00000000	          0.00000000	          0.62988700	          0.00000000	         -0.22276700	          0.00000000	          0.00000000	          0.00000000	
          0.34150000	         -5.40989200	        716.78776700	        -27.36213800	          0.16727300	          0.00600000	         -0.15061500	          0.00000000	         -1.86471900	          0.00000000	          0.00000000	          0.00000000	          0.00000000	          0.62988700	          0.00000000	         -0.22276700	          0.00000000	          0.00000000	          0.00000000	
          0.34200000	         -5.17091000	        717.36199000	        -27.35972400	          0.16740900	          0.00600000	         -0.15060000	          0.00000000	         -1.87687100	          0.00000000	          0.00000000	          0.00000000	          0.00000000	          0.62988700	          0.00000000	         -0.22276700	          0.00000000	          0.00000000	          0.00000000	
          0.34250000	         -4.93178500	        717.94259200	        -27.35794600	          0.16754400	          0.00600000	         -0.15058600	          0.00000000	         -1.88902700	          0.00000000	          0.00000000	          0.00000000	          0.00000000	          0.62988700	          0.00000000	         -0.22276700	          0.00000000	          0.00000000	          0.00000000	
          0.34300000	         -4.69250900	        718.52955500	        -27.35680800	          0.16767900	          0.00600000	         -0.15057200	          0.00000000	         -1.90118700	          0.00000000	          0.00000000	          0.00000000	          0.00000000	          0.62988700	          0.00000000	         -0.22276700	          0.00000000	          0.00000000	          0.00000000	
          0.34350000	         -4.45307700	        719.12286000	        -27.35631200	          0.16781500	          0.00600000	         -0.15055800	          0.00000000	         -1.91335100	          0.00000000	          0.00000000	          0.00000000	          0.00000000	          0.62988700	          0.00000000	         -0.22276700	          0.00000000	          0.00000000	          0.00000000	
          0.34400000	         -4.21348000	        719.72248900	        -27.35646200	          0.16795000	          0.00600000	         -0.15054400	          0.00000000	         -1.92551700	          0.00000000	          0.00000000	          0.00000000	          0.00000000	          0.62988700	          0.00000000	         -0.22276700	          0.00000000	          0.00000000	          0.00000000	
          0.34450000	         -3.97371100	        720.32842300	        -27.35726200	          0.16808600	          0.00600000	         -0.15053100	          0.00000000	         -1.93768700	          0.00000000	          0.00000000	          0.00000000	          0.00000000	          0.62988700	          0.00000000	         -0.22276700	          0.00000000	          0.00000000	          0.00000000	
          0.34500000	         -3.73376200	        720.94064500	        -27.35871500	          0.16822100	          0.00600000	         -0.15051800	          0.00000000	         -1.94985800	          0.00000000	          0.00000000	          0.00000000	          0.00000000	          0.62988700	          0.00000000	         -0.22276700	          0.00000000	          0.00000000	          0.00000000	
          0.34550000	         -3.49362700	        721.55913600	        -27.36082400	          0.16835700	          0.00600000	         -0.15050500	          0.00000000	         -1.96203200	          0.00000000	          0.00000000	          0.00000000	          0.00000000	          0.62988700	          0.00000000	         -0.22276700	          0.00000000	          0.00000000	          0.00000000	
          0.34600000	         -3.25329800	        722.18387700	        -27.36359300	          0.16849200	          0.00600000	         -0.15049200	          0.00000000	         -1.97420600	          0.00000000	          0.00000000	          0.00000000	          0.00000000	          0.62988700	          0.00000000	         -0.22276700	          0.00000000	          0.00000000	          0.00000000	
